<mxfile host="app.diagrams.net" modified="2023-05-22T06:45:44.453Z" agent="Mozilla/5.0 (Windows NT 10.0; Win64; x64) AppleWebKit/537.36 (KHTML, like Gecko) Chrome/113.0.0.0 Safari/537.36 Edg/113.0.1774.42" version="21.3.2" etag="Bp_0jbEb_jaDsQSoLs-1" type="github">
  <diagram name="第 1 页" id="_2ESHPvV2hZ2VOO10Q7P">
    <mxGraphModel>
      <root>
        <mxCell id="0" />
        <mxCell id="1" parent="0" />
      </root>
    </mxGraphModel>
  </diagram>
</mxfile>
